<?xml version="1.0" encoding="UTF-8"?>
<svg version="1.1" xmlns="http://www.w3.org/2000/svg" width="32" height="32">
<path d="M0 0 C0.79792969 0.00386719 1.59585937 0.00773438 2.41796875 0.01171875 C3.21589844 0.00785156 4.01382812 0.00398437 4.8359375 0 C10.79136108 0.01011108 10.79136108 0.01011108 11.91796875 1.13671875 C12.00428749 2.47939288 12.02503348 3.82646197 12.015625 5.171875 C12.01240234 5.98076172 12.00917969 6.78964844 12.00585938 7.62304688 C11.99748047 8.47318359 11.98910156 9.32332031 11.98046875 10.19921875 C11.97595703 11.05322266 11.97144531 11.90722656 11.96679688 12.78710938 C11.95497248 14.90367538 11.93703644 17.0202056 11.91796875 19.13671875 C8.74403186 20.72368719 5.3362267 20.27986345 1.85546875 20.26171875 C1.10974609 20.26558594 0.36402344 20.26945312 -0.40429688 20.2734375 C-5.95539624 20.26335376 -5.95539624 20.26335376 -7.08203125 19.13671875 C-7.18040335 17.8062825 -7.21281717 16.47078531 -7.21484375 15.13671875 C-7.21613281 14.33234375 -7.21742188 13.52796875 -7.21875 12.69921875 C-7.21488281 11.85359375 -7.21101562 11.00796875 -7.20703125 10.13671875 C-7.21089844 9.29109375 -7.21476563 8.44546875 -7.21875 7.57421875 C-7.21746094 6.76984375 -7.21617187 5.96546875 -7.21484375 5.13671875 C-7.21371582 4.39421875 -7.21258789 3.65171875 -7.21142578 2.88671875 C-6.90560969 -1.24929962 -3.34695304 0.00568243 0 0 Z M-5.08203125 3.13671875 C-4.75203125 3.79671875 -4.42203125 4.45671875 -4.08203125 5.13671875 C-3.75203125 4.47671875 -3.42203125 3.81671875 -3.08203125 3.13671875 C-3.74203125 3.13671875 -4.40203125 3.13671875 -5.08203125 3.13671875 Z M1.91796875 5.13671875 C1.91796875 5.79671875 1.91796875 6.45671875 1.91796875 7.13671875 C2.86671875 7.42546875 3.81546875 7.71421875 4.79296875 8.01171875 C7.91796875 9.13671875 7.91796875 9.13671875 9.91796875 11.13671875 C9.91796875 8.49671875 9.91796875 5.85671875 9.91796875 3.13671875 C7.03401138 3.13671875 4.6231906 4.19577202 1.91796875 5.13671875 Z M-5.08203125 10.13671875 C-5.08203125 12.44671875 -5.08203125 14.75671875 -5.08203125 17.13671875 C-2.44203125 16.47671875 0.19796875 15.81671875 2.91796875 15.13671875 C2.58796875 14.14671875 2.25796875 13.15671875 1.91796875 12.13671875 C-1.59393934 10.90701997 -1.59393934 10.90701997 -5.08203125 10.13671875 Z M8.91796875 14.13671875 C8.58796875 15.12671875 8.25796875 16.11671875 7.91796875 17.13671875 C8.57796875 17.13671875 9.23796875 17.13671875 9.91796875 17.13671875 C9.58796875 16.14671875 9.25796875 15.15671875 8.91796875 14.13671875 Z " fill="#BD2D53" transform="translate(14.08203125,5.86328125)"/>
<path d="M0 0 C0.66 0 1.32 0 2 0 C2 5.94 2 11.88 2 18 C-0.95664519 19.4783226 -3.74229737 19.06032783 -7 19 C-6.690625 18.4225 -6.38125 17.845 -6.0625 17.25 C-5.07416636 15.15705816 -4.4831387 13.25464725 -4 11 C-4.99 10.34 -5.98 9.68 -7 9 C-7 8.34 -7 7.68 -7 7 C-5.33388095 6.957279 -3.66617115 6.95936168 -2 7 C-1.67 7.33 -1.34 7.66 -1 8 C-1.020625 6.865625 -1.04125 5.73125 -1.0625 4.5625 C-1 1 -1 1 0 0 Z M-1 13 C-1.33 13.99 -1.66 14.98 -2 16 C-1.34 16 -0.68 16 0 16 C-0.33 15.01 -0.66 14.02 -1 13 Z " fill="#D1D9E5" transform="translate(24,7)"/>
<path d="M0 0 C2.05078125 0.03255208 4.1015625 0.06510417 6.15234375 0.09765625 C5.63671875 0.84015625 5.12109375 1.58265625 4.58984375 2.34765625 C2.9576214 4.89578812 2.9576214 4.89578812 3.27734375 7.22265625 C4.26110554 9.33071724 5.40563038 10.57877506 7.15234375 12.09765625 C5.15279629 12.14019981 3.15192739 12.13846408 1.15234375 12.09765625 C0.82234375 11.76765625 0.49234375 11.43765625 0.15234375 11.09765625 C-0.17765625 13.73765625 -0.50765625 16.37765625 -0.84765625 19.09765625 C-1.50765625 19.09765625 -2.16765625 19.09765625 -2.84765625 19.09765625 C-2.87449612 16.11843032 -2.89441662 13.1394433 -2.91015625 10.16015625 C-2.91853516 9.31001953 -2.92691406 8.45988281 -2.93554688 7.58398438 C-2.93876953 6.77509766 -2.94199219 5.96621094 -2.9453125 5.1328125 C-2.95054932 4.38394775 -2.95578613 3.63508301 -2.96118164 2.86352539 C-2.80271766 0.39864378 -2.46310433 0.13018522 0 0 Z M-0.84765625 3.09765625 C-0.51765625 3.75765625 -0.18765625 4.41765625 0.15234375 5.09765625 C0.48234375 4.43765625 0.81234375 3.77765625 1.15234375 3.09765625 C0.49234375 3.09765625 -0.16765625 3.09765625 -0.84765625 3.09765625 Z " fill="#EAEFF5" transform="translate(9.84765625,5.90234375)"/>
<path d="M0 0 C0.33 0 0.66 0 1 0 C1.3125 2.3125 1.3125 2.3125 1 5 C-2.55964352 8.03616654 -5.42411796 8.31924758 -10 8 C-9.67 7.01 -9.34 6.02 -9 5 C-6.10441559 3.5522078 -4.25811062 3 -1 3 C-0.67 2.01 -0.34 1.02 0 0 Z " fill="#E91F48" transform="translate(18,18)"/>
<path d="M0 0 C-2 3 -2 3 -3.9453125 3.51171875 C-4.66460937 3.56972656 -5.38390625 3.62773437 -6.125 3.6875 C-8.043125 3.8421875 -8.043125 3.8421875 -10 4 C-10.33 5.65 -10.66 7.3 -11 9 C-11.66 8.67 -12.32 8.34 -13 8 C-12.7323244 4.69866765 -12.4396165 3.37496702 -9.875 1.1875 C-6.41554399 -0.24140574 -3.70840602 -0.21814153 0 0 Z " fill="#EE3A5B" transform="translate(25,6)"/>
<path d="M0 0 C1.65 0 3.3 0 5 0 C5.73080266 1.97746603 6.39421747 3.98072489 7 6 C6.67 6.66 6.34 7.32 6 8 C5.34 8 4.68 8 4 8 C3.71125 7.195625 3.4225 6.39125 3.125 5.5625 C2.26737432 2.8673532 2.26737432 2.8673532 0 2 C0 1.34 0 0.68 0 0 Z " fill="#E7EBF4" transform="translate(17,14)"/>
<path d="M0 0 C0.66 0 1.32 0 2 0 C2 3.3 2 6.6 2 10 C1.01 10.495 1.01 10.495 0 11 C-0.19406478 9.35492782 -0.38007935 7.70890406 -0.5625 6.0625 C-0.66691406 5.14597656 -0.77132813 4.22945312 -0.87890625 3.28515625 C-0.91886719 2.53105469 -0.95882813 1.77695313 -1 1 C-0.67 0.67 -0.34 0.34 0 0 Z " fill="#F6F2F5" transform="translate(24,7)"/>
<path d="M0 0 C-3.83325617 2.70582788 -6.32538149 3.32613618 -11 3 C-8.15930939 0.15930939 -3.81147953 -1.90573977 0 0 Z " fill="#AA0E3A" transform="translate(19,23)"/>
<path d="M0 0 C0.99 0 1.98 0 3 0 C3 0.66 3 1.32 3 2 C2.01 2 1.02 2 0 2 C0 1.34 0 0.68 0 0 Z " fill="#E6EEF5" transform="translate(10,19)"/>
<path d="M0 0 C0.66 0 1.32 0 2 0 C2 0.66 2 1.32 2 2 C1.34 2 0.68 2 0 2 C0 1.34 0 0.68 0 0 Z " fill="#F3F6F7" transform="translate(20,11)"/>
</svg>
