<?xml version="1.0" standalone="no"?>
<!DOCTYPE svg PUBLIC "-//W3C//DTD SVG 20010904//EN"
 "http://www.w3.org/TR/2001/REC-SVG-20010904/DTD/svg10.dtd">
<svg version="1.0" xmlns="http://www.w3.org/2000/svg"
 width="1024.000000pt" height="1024.000000pt" viewBox="0 0 1024.000000 1024.000000"
 preserveAspectRatio="xMidYMid meet">

<g transform="translate(0.000000,1024.000000) scale(0.100000,-0.100000)"
fill="#000000" stroke="none">
<path d="M0 5120 l0 -5120 5120 0 5120 0 0 5120 0 5120 -5120 0 -5120 0 0
-5120z m3317 2525 c80 -24 143 -103 143 -179 0 -32 -3 -34 -47 -45 -77 -19
-118 -52 -131 -104 -22 -87 -83 -128 -159 -108 -43 12 -96 61 -112 104 -17 44
-13 137 8 182 20 44 96 120 139 137 22 9 51 16 103 27 3 0 28 -6 56 -14z
m4154 -189 c-138 -273 -384 -566 -612 -728 -253 -181 -527 -266 -819 -255
-173 7 -252 27 -496 128 -256 106 -330 123 -499 116 -189 -8 -316 -55 -433
-161 -239 -218 -250 -553 -27 -794 119 -128 288 -205 605 -277 306 -69 484
-127 655 -212 507 -254 805 -700 805 -1208 0 -352 -132 -669 -384 -920 -375
-375 -941 -540 -1474 -430 -158 33 -278 71 -471 152 -308 129 -428 161 -636
170 -355 14 -689 -110 -957 -356 l-58 -53 22 54 c141 339 398 657 690 851 260
174 558 256 821 228 140 -15 258 -49 450 -127 219 -90 275 -104 432 -111 112
-5 143 -2 214 15 124 32 205 76 287 157 109 107 164 232 164 373 0 250 -168
473 -446 591 -71 30 -219 71 -474 131 -441 104 -726 252 -966 501 -216 226
-328 484 -349 804 -23 356 137 747 413 1007 223 210 519 356 860 425 126 25
460 25 592 0 152 -30 265 -63 420 -123 225 -87 417 -151 510 -171 105 -22 356
-24 480 -4 104 17 260 66 364 116 103 49 269 162 331 224 27 29 52 46 54 40 2
-6 -29 -75 -68 -153z m-4652 -505 c67 -62 25 -181 -64 -181 -53 0 -105 53
-105 107 1 91 103 136 169 74z m260 -341 c-77 -212 -102 -481 -64 -695 72
-406 358 -773 845 -1084 126 -81 220 -132 513 -280 136 -69 244 -127 242 -129
-3 -3 -12 1 -20 8 -13 10 -18 11 -28 1 -7 -7 -7 -12 -2 -11 19 4 36 0 32 -7
-3 -5 5 -8 18 -8 13 0 21 3 18 8 -2 4 11 0 30 -9 22 -11 33 -22 30 -30 -3 -8
0 -14 6 -14 6 0 11 6 11 13 0 9 2 9 9 -1 4 -8 11 -13 15 -13 23 3 30 0 16 -8
-8 -6 -17 -9 -20 -7 -3 1 -15 -8 -27 -21 l-22 -22 26 -19 c20 -14 23 -21 13
-27 -9 -6 -11 -4 -5 5 5 9 2 10 -14 5 -11 -3 -29 -2 -38 4 -12 7 -13 11 -5 11
8 0 12 6 9 13 -2 6 3 17 10 22 12 9 9 13 -14 23 -26 12 -27 11 -8 -3 19 -15
19 -16 -3 -22 -18 -4 -20 -8 -10 -14 10 -7 11 -9 0 -9 -7 0 -10 -4 -7 -10 3
-5 -14 -2 -39 7 -25 9 -43 20 -40 25 3 4 -2 5 -10 2 -18 -7 -196 52 -406 134
-273 107 -603 283 -790 421 -94 69 -279 254 -347 345 -117 159 -203 342 -240
511 -25 114 -21 291 10 406 27 103 106 265 185 379 43 61 140 180 147 180 2 0
-10 -36 -26 -80z m4390 -200 c127 -178 199 -336 256 -555 18 -71 36 -164 40
-205 3 -41 8 -99 10 -127 3 -29 1 -53 -3 -53 -4 0 -25 22 -46 49 -62 83 -218
224 -333 303 -234 162 -462 278 -801 409 -26 10 -24 12 53 40 44 16 106 41
138 56 l58 27 167 -83 c160 -79 201 -103 375 -214 43 -27 79 -48 81 -46 2 2
-6 37 -19 77 -31 96 -93 198 -171 282 l-65 68 41 47 c23 26 49 59 57 72 l16
24 39 -38 c22 -21 70 -81 107 -133z m-2303 -335 c431 -109 585 -158 800 -253
178 -79 384 -189 511 -273 28 -19 87 -56 130 -83 221 -140 475 -371 581 -530
142 -211 217 -404 221 -573 2 -49 0 -53 -21 -54 -22 -2 -22 -2 -1 -6 21 -4 26
-33 11 -58 -3 -6 -9 -41 -14 -80 -6 -56 -9 -64 -13 -39 -6 29 -8 31 -31 21
-25 -10 -25 -10 -2 -14 37 -7 25 -23 -19 -23 -41 0 -47 -19 -6 -21 14 -1 10
-4 -13 -9 -19 -5 -37 -7 -39 -4 -2 2 0 4 6 4 6 0 8 11 5 25 -2 14 -8 25 -13
25 -5 0 -9 -11 -9 -25 0 -21 -5 -25 -27 -25 -20 0 -24 -3 -15 -9 15 -9 13 -41
-3 -44 -6 -1 -13 44 -17 107 -16 232 -110 482 -266 706 -159 228 -532 521
-960 755 -143 79 -194 104 -607 305 -239 116 -399 202 -411 221 -7 12 -22 15
222 -46z m854 -15 c370 -72 577 -135 807 -245 433 -208 719 -513 789 -845 16
-77 18 -278 4 -370 -15 -91 -50 -220 -61 -220 -5 0 -9 24 -9 53 0 120 -74 332
-172 495 -230 382 -578 656 -1273 1002 -249 123 -363 187 -320 176 11 -3 117
-23 235 -46z m-3387 -362 c8 -76 54 -227 102 -331 76 -165 256 -396 429 -550
129 -115 494 -337 708 -429 51 -22 96 -44 99 -49 3 -5 16 -11 29 -14 12 -2 25
-7 29 -11 3 -4 -1 -5 -11 -1 -12 4 -15 0 -13 -20 1 -13 9 -32 18 -40 14 -14
17 -14 32 1 9 9 22 16 28 16 7 0 -1 -11 -18 -24 -31 -25 -30 -27 20 -40 11 -3
0 -3 -25 -1 l-45 4 30 -14 30 -14 -27 -1 c-15 0 -30 5 -33 11 -4 6 -13 8 -20
5 -16 -6 -192 33 -352 78 -375 106 -711 315 -896 559 -146 191 -212 424 -189
672 6 66 16 134 21 150 6 17 15 49 21 73 6 23 15 40 19 38 4 -3 11 -34 14 -68z
m-177 -985 c73 -114 237 -276 389 -385 62 -44 227 -143 320 -192 39 -21 59
-34 45 -31 -24 7 -24 7 -5 -8 12 -10 24 -12 31 -6 6 5 14 6 17 2 13 -13 7 -32
-13 -38 -11 -4 -18 -10 -15 -15 9 -14 -16 -23 -28 -11 -17 17 -22 13 -22 -14
0 -14 5 -23 11 -21 15 6 12 -37 -3 -47 -16 -10 -179 78 -175 93 1 7 -2 9 -8 5
-12 -7 -161 82 -215 130 -21 19 -41 32 -43 30 -5 -5 17 -102 28 -125 4 -8 15
-31 23 -50 9 -19 35 -69 57 -110 31 -55 35 -67 16 -45 -14 17 -25 35 -26 41 0
5 -6 18 -13 28 -12 16 -13 16 -13 -3 0 -11 3 -18 7 -15 13 7 20 -48 8 -62 -6
-8 -9 -23 -6 -33 3 -14 -2 -21 -19 -25 -23 -6 -31 -25 -17 -40 10 -10 11 -46
1 -40 -5 3 -7 13 -6 22 2 9 -3 16 -10 14 -16 -3 -91 116 -163 258 -63 124
-138 338 -163 460 -23 115 -42 290 -31 290 2 0 21 -26 41 -57z m2299 -383 c-3
-5 -12 -10 -18 -10 -7 0 -6 4 3 10 19 12 23 12 15 0z m-690 -30 c4 -6 12 -8
18 -4 7 3 1 -4 -13 -15 -26 -21 -56 -29 -45 -11 3 6 13 10 21 10 8 0 12 5 8
11 -4 8 -9 8 -17 0 -13 -13 -27 -14 -27 -2 0 8 15 15 42 20 4 0 10 -4 13 -9z
m38 -77 c-7 -2 -21 -2 -30 0 -10 3 -4 5 12 5 17 0 24 -2 18 -5z m37 -13 c0 -5
-5 -10 -11 -10 -5 0 -7 5 -4 10 3 6 8 10 11 10 2 0 4 -4 4 -10z m125 -8 c-3
-3 -11 0 -18 7 -9 10 -8 11 6 5 10 -3 15 -9 12 -12z m3132 -84 c-3 -7 -5 -2
-5 12 0 14 2 19 5 13 2 -7 2 -19 0 -25z m-4087 -52 c0 -2 -7 -6 -15 -10 -8 -3
-15 -1 -15 4 0 6 7 10 15 10 8 0 15 -2 15 -4z m3990 -10 c0 -3 -4 -8 -10 -11
-5 -3 -10 -1 -10 4 0 6 5 11 10 11 6 0 10 -2 10 -4z m-103 -88 c-3 -7 -5 -2
-5 12 0 14 2 19 5 13 2 -7 2 -19 0 -25z m154 -5 c-12 -20 -14 -14 -5 12 4 9 9
14 11 11 3 -2 0 -13 -6 -23z m-4488 -106 c3 -7 -3 -13 -14 -14 -12 -1 -16 3
-12 13 6 18 19 18 26 1z m4419 -46 c-9 -16 -18 -28 -21 -26 -4 5 27 55 34 55
2 0 -4 -13 -13 -29z m244 -370 c38 -23 58 -70 50 -114 -18 -94 -148 -110 -189
-24 -9 19 -17 42 -17 52 0 31 32 77 63 90 43 19 56 18 93 -4z m-383 -435 c70
-30 113 -109 102 -190 -17 -131 -131 -235 -262 -238 -94 -2 -159 39 -188 121
-25 71 -21 88 22 96 43 8 104 37 122 58 6 9 22 41 34 73 33 83 94 113 170 80z"/>
<path d="M4665 4356 c30 -26 51 -34 40 -16 -3 6 -21 17 -38 26 l-32 15 30 -25z"/>
<path d="M4678 4273 c7 -3 16 -2 19 1 4 3 -2 6 -13 5 -11 0 -14 -3 -6 -6z"/>
<path d="M7368 4225 c-3 -14 -1 -25 3 -25 5 0 9 11 9 25 0 14 -2 25 -4 25 -2
0 -6 -11 -8 -25z"/>
<path d="M7309 4169 c-10 -6 -7 -9 14 -9 29 0 35 5 14 13 -8 3 -20 1 -28 -4z"/>
<path d="M3938 4213 c7 -3 16 -2 19 1 4 3 -2 6 -13 5 -11 0 -14 -3 -6 -6z"/>
<path d="M3137 4006 c-5 -13 40 -42 50 -32 2 2 -5 7 -16 11 -12 3 -19 10 -16
15 3 5 1 11 -4 14 -5 3 -11 0 -14 -8z"/>
<path d="M3090 3996 c0 -2 7 -7 16 -10 8 -3 12 -2 9 4 -6 10 -25 14 -25 6z"/>
<path d="M3144 3966 c11 -9 24 -16 30 -16 12 0 7 5 -24 19 -24 11 -24 11 -6
-3z"/>
<path d="M2720 3839 c0 -3 11 -20 25 -39 14 -19 25 -29 25 -23 0 12 -49 73
-50 62z"/>
<path d="M2763 3819 c12 -19 27 -16 27 4 0 7 -8 13 -19 13 -15 0 -16 -4 -8
-17z"/>
</g>
</svg>
